<?xml version="1.0" encoding="UTF-8"?>
<!DOCTYPE svg PUBLIC "-//W3C//DTD SVG 1.1//EN" "http://www.w3.org/Graphics/SVG/1.1/DTD/svg11.dtd">
<svg xmlns="http://www.w3.org/2000/svg" version="1.1" width="96px" height="96px" style="shape-rendering:geometricPrecision; text-rendering:geometricPrecision; image-rendering:optimizeQuality; fill-rule:evenodd; clip-rule:evenodd" xmlns:xlink="http://www.w3.org/1999/xlink">
<g><path style="opacity:0.757" fill="#66bebe" d="M 3.5,0.5 C 32.5019,0.333355 61.5019,0.500022 90.5,1C 91.4162,1.37424 92.2496,1.87424 93,2.5C 93.8285,32.7385 93.6618,62.9051 92.5,93C 62.5,93.6667 32.5,93.6667 2.5,93C 2,92.5 1.5,92 1,91.5C 0.333333,62.1667 0.333333,32.8333 1,3.5C 1.69794,2.30943 2.53128,1.30943 3.5,0.5 Z M 6.5,4.5 C 34.0741,4.17164 61.5741,4.50497 89,5.5C 90.1504,19.4097 90.6504,33.4097 90.5,47.5C 90.3333,60.8333 90.1667,74.1667 90,87.5C 89.6258,88.4162 89.1258,89.2496 88.5,90C 61.1667,90.6667 33.8333,90.6667 6.5,90C 6,89.5 5.5,89 5,88.5C 4.83333,74.6667 4.66667,60.8333 4.5,47C 4.517,32.6119 5.18367,18.4452 6.5,4.5 Z"/></g>
<g><path style="opacity:0.958" fill="#66bebe" d="M 15.5,16.5 C 22.1667,16.5 28.8333,16.5 35.5,16.5C 35.6657,20.8461 35.499,25.1794 35,29.5C 28.6667,36.5 22.3333,43.5 16,50.5C 15.5001,39.1716 15.3335,27.8382 15.5,16.5 Z"/></g>
<g><path style="opacity:0.952" fill="#66bebe" d="M 51.5,16.5 C 59.84,16.3336 68.1733,16.5003 76.5,17C 68.7493,24.0794 61.7493,31.7461 55.5,40C 63.2437,52.819 71.2437,65.4856 79.5,78C 71.1667,78.6667 62.8333,78.6667 54.5,78C 49.2906,70.4178 44.4573,62.5844 40,54.5C 38.6667,55.8333 37.3333,57.1667 36,58.5C 35.5004,65.1583 35.3337,71.825 35.5,78.5C 28.8333,78.5 22.1667,78.5 15.5,78.5C 15.3337,71.4921 15.5004,64.4921 16,57.5C 28.4162,44.2567 40.2496,30.59 51.5,16.5 Z"/></g>
</svg>
